<?xml version="1.0" encoding="UTF-8" standalone="no"?>
<svg
   xmlns:dc="http://purl.org/dc/elements/1.1/"
   xmlns:cc="http://creativecommons.org/ns#"
   xmlns:rdf="http://www.w3.org/1999/02/22-rdf-syntax-ns#"
   xmlns:svg="http://www.w3.org/2000/svg"
   xmlns="http://www.w3.org/2000/svg"
   xmlns:sodipodi="http://sodipodi.sourceforge.net/DTD/sodipodi-0.dtd"
   xmlns:inkscape="http://www.inkscape.org/namespaces/inkscape"
   width="45mm"
   height="45mm"
   viewBox="0 0 45 45"
   version="1.1"
   id="svg8"
   inkscape:version="1.0.1 (3bc2e813f5, 2020-09-07)"
   sodipodi:docname="speach_logo.svg">
  <defs
     id="defs2" />
  <sodipodi:namedview
     id="base"
     pagecolor="#ffffff"
     bordercolor="#666666"
     borderopacity="1.0"
     inkscape:pageopacity="0.0"
     inkscape:pageshadow="2"
     inkscape:zoom="3.959798"
     inkscape:cx="118.85564"
     inkscape:cy="80.793277"
     inkscape:document-units="mm"
     inkscape:current-layer="svg8"
     inkscape:document-rotation="0"
     showgrid="false"
     fit-margin-top="0"
     fit-margin-left="0"
     fit-margin-right="0"
     fit-margin-bottom="0"
     inkscape:window-width="1920"
     inkscape:window-height="1009"
     inkscape:window-x="-8"
     inkscape:window-y="-8"
     inkscape:window-maximized="1" />
  <metadata
     id="metadata5">
    <rdf:RDF>
      <cc:Work
         rdf:about="">
        <dc:format>image/svg+xml</dc:format>
        <dc:type
           rdf:resource="http://purl.org/dc/dcmitype/StillImage" />
        <dc:title></dc:title>
      </cc:Work>
    </rdf:RDF>
  </metadata>
  <rect
     style="opacity:1;fill:#00b300;fill-opacity:1;stroke:#000000;stroke-width:0.978261"
     id="rect149"
     width="44.021736"
     height="44.02174"
     x="-44.510868"
     y="0.4891305"
     transform="rotate(-90)" />
  <g
     inkscape:label="Layer 1"
     inkscape:groupmode="layer"
     id="layer1"
     transform="translate(-17.11248,-6.4447553)">
    <g
       id="hair"
       transform="matrix(0.75615086,0,0,0.75615086,8.5258363,1.5581304)"
       style="display:none" />
    <g
       id="skin"
       transform="matrix(0.75615086,0,0,0.75615086,8.5258363,1.5581304)"
       style="display:none" />
    <g
       id="skin-shadow"
       transform="matrix(0.75615086,0,0,0.75615086,8.5258363,1.5581304)"
       style="display:none" />
    <g
       id="g147"
       transform="matrix(0.92806466,0,0,0.92806466,6.059255,2.4183948)">
      <g
         id="color"
         transform="matrix(0.75615086,0,0,0.75615086,8.5258363,1.5581304)"
         style="display:inline">
        <path
           fill="#b1cc33"
           stroke="#b1cc33"
           stroke-linejoin="round"
           stroke-miterlimit="10"
           stroke-width="2"
           d="m 58.6128,14.8309 c 0,0 -3.7211,6.9524 -9.3761,9.375 -4.4396,1.9049 -10.0808,1.0073 -12.2962,0.5447 -2.2244,0.4174 -7.8826,1.1998 -12.2826,-0.7952 -5.6044,-2.5373 -9.183,-9.5641 -9.183,-9.5641 0,0 7.6302,-1.9423 13.2346,0.5949 1.2046,0.5423 2.307,1.2836 3.3085,2.1239 3.786,3.1849 4.8131,3.5598 9.9995,0.1019 1.0184,-0.8197 2.1358,-1.5384 3.3511,-2.056 5.6551,-2.4225 13.2442,-0.3251 13.2442,-0.3251 z"
           id="path10" />
        <path
           fill="#ffa7c0"
           stroke="#ffa7c0"
           stroke-linecap="round"
           stroke-linejoin="round"
           stroke-miterlimit="10"
           stroke-width="2"
           d="M 60.72,39.78 C 60.41,52.47 49.28,62.43 36.71,63.98 36.66,63.99 36.61,63.99 36.56,64 H 36.45 C 36.24,64 36.04,63.99 35.82,63.98 24.48,61.42 13.54,51.45 12.4,39.78 c 0,-1.76 0.19,-3.49 0.55,-5.15 0.64,-2.99 1.85,-5.78 3.49,-8.25 2.64,-2.89 6.55,-4.71 10.92,-4.71 2.27,0 4.4,0.48 6.31,1.35 1.29,0.59 2.73,0.7401 4.09,0.44 0.45,-0.09 0.9,-0.24 1.33,-0.44 1.9,-0.87 4.04,-1.35 6.3,-1.35 4.88,0 9.2,2.27 11.8,5.76 0.29,0.37 0.54,0.75 0.78,1.14 0.4901,0.93 0.91,1.89 1.28,2.88 0.01,0.02 0.02,0.03 0.02,0.05 0.12,0.32 0.23,0.65 0.33,0.98 0.09,0.29 0.1801,0.58 0.26,0.87 0.07,0.26 0.14,0.51 0.2,0.77 0.37,1.56 0.59,3.18 0.65,4.83 0.01,0.28 0.01,0.55 0.01,0.83 z"
           id="path12" />
        <path
           fill="#e67a94"
           stroke="#e67a94"
           stroke-linejoin="round"
           stroke-miterlimit="10"
           stroke-width="2"
           d="m 37.76,23.46 c 1.05,-0.2 2.05,-0.36 2.99,-0.46 -1.72,0.3 -3.29,0.57 -3.63,0.6 0.22,-0.05 0.43,-0.1 0.64,-0.14 z"
           id="path14" />
        <path
           fill="#e67a94"
           stroke="#e67a94"
           stroke-linejoin="round"
           stroke-miterlimit="10"
           stroke-width="2"
           d="M 60.72,39.78 C 60.41,52.47 49.28,62.43 36.71,63.98 56.9236,59.261 68.1247,20.0555 40.75,23 c 2.16,-0.37 4.57,-0.77 5.09,-0.77 4.61,0 8.72,2.03 11.35,5.2 0.29,0.37 0.54,0.75 0.78,1.14 0.4901,0.93 0.91,1.89 1.28,2.88 0.01,0.02 0.02,0.03 0.02,0.05 0.12,0.32 0.23,0.65 0.33,0.98 0.09,0.29 0.1801,0.58 0.26,0.87 0.07,0.26 0.14,0.51 0.2,0.77 0.39,1.56 0.62,3.17 0.65,4.83 0.01,0.28 0.01,0.55 0.01,0.83 z"
           id="path16" />
      </g>
      <g
         id="line"
         transform="matrix(0.75615086,0,0,0.75615086,8.5258363,1.5581304)">
        <path
           fill="none"
           stroke="#000000"
           stroke-linecap="round"
           stroke-linejoin="round"
           stroke-miterlimit="10"
           stroke-width="2"
           d="m 41.9611,17.325 c 1.0056,-0.8284 2.1179,-1.5632 3.3207,-2.0925 5.6325,-2.4789 13.2481,-0.4519 13.2481,-0.4519"
           id="path24" />
        <path
           fill="none"
           stroke="#000000"
           stroke-linecap="round"
           stroke-linejoin="round"
           stroke-miterlimit="10"
           stroke-width="2"
           d="m 58.5299,14.7806 c 0,0 -1.0994,2.1043 -3.0227,4.4128"
           id="path26" />
        <path
           fill="none"
           stroke="#000000"
           stroke-linecap="round"
           stroke-linejoin="round"
           stroke-miterlimit="10"
           stroke-width="2"
           d="M 31.6404,16.8304 C 30.6348,16.002 29.5225,15.2672 28.3197,14.7379 22.6872,12.259 15.0716,14.286 15.0716,14.286"
           id="path28" />
        <path
           fill="none"
           stroke="#000000"
           stroke-linecap="round"
           stroke-linejoin="round"
           stroke-miterlimit="10"
           stroke-width="2"
           d="m 15.0716,14.286 c 0,0 1.0245,1.961 2.8257,4.1736"
           id="path30" />
        <path
           fill="none"
           stroke="#000000"
           stroke-linecap="round"
           stroke-linejoin="round"
           stroke-miterlimit="10"
           stroke-width="2"
           d="M 36.4451,15.3662 C 36.1248,13.036 35.2925,9.7255 33.1372,7.4625"
           id="path32" />
        <path
           fill="none"
           stroke="#000000"
           stroke-linecap="round"
           stroke-linejoin="round"
           stroke-miterlimit="10"
           stroke-width="2"
           d="M 60.72,39.78 C 60.41,52.47 49.28,62.43 36.71,63.98 36.66,63.99 36.61,63.99 36.56,64 H 36.45 C 36.24,64 36.03,64.03 35.82,63.98 24.48,61.42 13.54,51.45 12.4,39.78 c -0.17,-1.75 0.19,-3.49 0.55,-5.15 0.64,-2.99 1.85,-5.78 3.49,-8.25 2.64,-2.89 6.55,-4.71 10.92,-4.71 2.27,0 4.4,0.48 6.31,1.35 1.29,0.59 2.73,0.7401 4.09,0.44 0.45,-0.09 0.9,-0.24 1.33,-0.44 1.9,-0.87 4.04,-1.35 6.3,-1.35 4.88,0 9.2,2.27 11.8,5.76 0.29,0.37 0.54,0.75 0.78,1.14 0.4901,0.93 0.91,1.89 1.28,2.88 0.01,0.02 0.02,0.03 0.02,0.05 0.12,0.32 0.23,0.65 0.33,0.98 0.09,0.29 0.1801,0.58 0.26,0.87 0.07,0.26 0.14,0.51 0.2,0.77 0.39,1.56 0.62,3.17 0.65,4.83 0.01,0.28 0.01,0.55 0.01,0.83 z"
           id="path34" />
      </g>
      <g
         id="g103"
         transform="matrix(0.42629892,0,0,0.42629892,20.173218,16.991466)">
        <g
           id="color-2">
          <polygon
             fill="#5c9e31"
             stroke="none"
             points="24.1773,60.945 11.3803,52.367 13.1303,47.992 15.8183,45.054 19.6933,43.179 24.0053,43.054 30.0813,43.63 48.8353,51.987 58.5053,57.054 58.2553,58.242 44.9513,59.982 "
             id="polygon65" />
          <path
             fill="#b1cc33"
             stroke="none"
             d="m 18.4553,50.754 c 0.006,0.548 0.452,0.989 1,0.989 h 0.011 l 1.132,-0.014 c 3.9774,0.0945 7.93,-0.6507 11.6,-2.187 8.23,-3.493 4.665,-25.974 4.157,-28.931 v -0.133 c 0.0039,-3.0745 2.4955,-5.5657 5.57,-5.569 3.4,0 7.962,2.765 7.962,5.592 0,3.252 -6.458,3.5 -6.523,3.5 -0.5521,0.0125 -0.9896,0.4702 -0.9771,1.0224 0.0014,0.0631 0.0088,0.1259 0.0221,0.1876 3.074,14.237 1.364,29.705 -2.2,31.3 -5.617,2.519 -16.071,2.844 -23.41,2.081 -1.858,-0.193 -3.148,-0.744 -3.833,-1.637 -0.7,-0.916 -0.881,-2.275 -0.561,-4.279 0.005,-0.032 -0.006,-0.061 0,-0.092"
             id="path67" />
        </g>
        <g
           id="hair-3" />
        <g
           id="skin-0" />
        <g
           id="skin-shadow-4" />
        <g
           id="line-0">
          <path
             fill="none"
             stroke="#000000"
             stroke-linecap="round"
             stroke-linejoin="round"
             stroke-width="2"
             d="m 44.9693,59 c 2.194,0.007 9.422,-0.092 12.491,-0.183 0.6551,-0.0245 1.1663,-0.5754 1.1418,-1.2305 -0.016,-0.4279 -0.2613,-0.8141 -0.6418,-1.0105 l -9.472,-3.638"
             id="path73" />
          <path
             fill="none"
             stroke="#000000"
             stroke-linecap="round"
             stroke-linejoin="round"
             stroke-width="2"
             d="m 19.4543,50.74 c 0.368,-0.004 0.7433,-0.0087 1.126,-0.014 3.8491,0.1018 7.6758,-0.6165 11.226,-2.107 7.82,-3.319 3.549,-27.92 3.549,-27.92 v -0.224 c 0,-3.6285 2.9415,-6.57 6.57,-6.57 v 0 c 3.628,0 8.962,2.964 8.962,6.592 0,4.333 -7.5,4.5 -7.5,4.5 2.935,13.6 1.708,30.419 -2.772,32.428 -5.794,2.6 -16.262,2.959 -23.923,2.163 -5.217,-0.542 -5.83,-3.608 -5.278,-7.068"
             id="path75" />
          <path
             fill="none"
             stroke="#000000"
             stroke-linecap="round"
             stroke-linejoin="round"
             stroke-width="2"
             d="m 29.6873,44.563 c -13.331,-5.972 -18.322,6.062 -18.275,7.957"
             id="path77" />
          <path
             fill="none"
             stroke="#000000"
             stroke-linecap="round"
             stroke-miterlimit="10"
             stroke-width="2"
             d="m 48.7393,24.452 c 0,0 3.793,4.054 7.585,4.577"
             id="path79" />
          <polyline
             fill="none"
             stroke="#000000"
             stroke-linecap="round"
             stroke-miterlimit="10"
             stroke-width="2"
             points="56.8733,33.606 55.8273,29.029 60.6653,26.806"
             id="polyline81" />
        </g>
      </g>
    </g>
  </g>
</svg>
